HIERARCHY
ROOT Hips
{
	OFFSET 0.000000 0.000000 0.000000
	CHANNELS 6 Xposition Yposition Zposition Xrotation Yrotation Zrotation
	JOINT Spine
	{
		OFFSET 0.000000 10.431076 -0.183291
		CHANNELS 3 Xrotation Yrotation Zrotation
		JOINT Spine1
		{
			OFFSET 0.000000 12.169579 -0.213840
			CHANNELS 3 Xrotation Yrotation Zrotation
			JOINT Spine2
			{
				OFFSET 0.000000 13.908089 -0.244389
				CHANNELS 3 Xrotation Yrotation Zrotation
				JOINT Neck
				{
					OFFSET 0.000000 15.646614 -0.274937
					CHANNELS 3 Xrotation Yrotation Zrotation
					JOINT Head
					{
						OFFSET 0.000000 9.992981 1.511905
						CHANNELS 3 Xrotation Yrotation Zrotation
						End Site
						{
							OFFSET 0.000000 23.944481 0.000000
						}
					}
				}
				JOINT LeftShoulder
				{
					OFFSET 5.623900 13.422947 -0.295229
					CHANNELS 3 Xrotation Yrotation Zrotation
					JOINT LeftArm
					{
						OFFSET 11.299500 -4.486679 -0.040584
						CHANNELS 3 Xrotation Yrotation Zrotation
						JOINT LeftForeArm
						{
							OFFSET 18.812038 -19.995176 1.759347
							CHANNELS 3 Xrotation Yrotation Zrotation
							JOINT LeftHand
							{
								OFFSET 14.068768 -14.666154 17.701773
								CHANNELS 3 Xrotation Yrotation Zrotation
								JOINT LeftHandIndex1
								{
									OFFSET 4.900085 -8.554094 9.848974
									CHANNELS 3 Xrotation Yrotation Zrotation
									JOINT LeftHandIndex2
									{
										OFFSET 0.116100 -0.767465 0.848562
										CHANNELS 3 Xrotation Yrotation Zrotation
										JOINT LeftHandIndex3
										{
											OFFSET 0.283611 -1.365776 1.144894
											CHANNELS 3 Xrotation Yrotation Zrotation
											End Site
											{
												OFFSET 0.163895 -1.083391 1.197872
											}
										}
									}
								}
							}
						}
					}
				}
				JOINT RightShoulder
				{
					OFFSET -5.623900 13.422947 -0.254645
					CHANNELS 3 Xrotation Yrotation Zrotation
					JOINT RightArm
					{
						OFFSET -11.299497 -4.486683 0.040584
						CHANNELS 3 Xrotation Yrotation Zrotation
						JOINT RightForeArm
						{
							OFFSET -18.812038 -19.995190 1.637604
							CHANNELS 3 Xrotation Yrotation Zrotation
							JOINT RightHand
							{
								OFFSET -14.068760 -14.666158 17.713804
								CHANNELS 3 Xrotation Yrotation Zrotation
								JOINT RightHandIndex1
								{
									OFFSET -5.135284 -8.648746 9.496262
									CHANNELS 3 Xrotation Yrotation Zrotation
									JOINT RightHandIndex2
									{
										OFFSET 0.086082 -0.592590 1.038300
										CHANNELS 3 Xrotation Yrotation Zrotation
										JOINT RightHandIndex3
										{
											OFFSET -0.240086 -1.427147 1.157845
											CHANNELS 3 Xrotation Yrotation Zrotation
											End Site
											{
												OFFSET 0.114975 -0.791478 1.386780
											}
										}
									}
								}
							}
						}
					}
				}
			}
		}
	}
	JOINT LeftUpLeg
	{
		OFFSET 10.464871 -5.799515 0.414702
		CHANNELS 3 Xrotation Yrotation Zrotation
		JOINT LeftLeg
		{
			OFFSET 5.458568 -47.016251 -0.902471
			CHANNELS 3 Xrotation Yrotation Zrotation
			JOINT LeftFoot
			{
				OFFSET 3.872663 -40.996902 -0.210208
				CHANNELS 3 Xrotation Yrotation Zrotation
				JOINT LeftToeBase
				{
					OFFSET -1.923424 -8.338470 13.147891
					CHANNELS 3 Xrotation Yrotation Zrotation
					End Site
					{
						OFFSET -0.915655 -0.157990 6.151315
					}
				}
			}
		}
	}
	JOINT RightUpLeg
	{
		OFFSET -10.464871 -5.799515 0.587245
		CHANNELS 3 Xrotation Yrotation Zrotation
		JOINT RightLeg
		{
			OFFSET -5.458575 -47.016251 -1.014727
			CHANNELS 3 Xrotation Yrotation Zrotation
			JOINT RightFoot
			{
				OFFSET -3.872656 -40.996872 0.047854
				CHANNELS 3 Xrotation Yrotation Zrotation
				JOINT RightToeBase
				{
					OFFSET 1.923487 -8.337814 12.513378
					CHANNELS 3 Xrotation Yrotation Zrotation
					End Site
					{
						OFFSET 0.915691 -0.157654 6.051507
					}
				}
			}
		}
	}
}
MOTION
Frames: 7
Frame Time: 0.033333
4.290544 -10.739048 4.427640 0.471021 -0.192895 -8.021260 -2.982601 1.059498 -6.410676 -5.046697 2.415365 -9.382086 -5.024250 2.308277 -9.426638 -3.117416 0.469456 3.377396 7.034185 6.199503 13.024848 -1.451661 11.931640 1.116867 -21.525652 -14.259173 -16.281342 -63.464895 -40.196486 -25.798156 -27.534086 -26.896822 9.293478 -6.252712 9.964321 9.604102 -13.018139 2.485038 5.973634 1.203595 -1.394335 -1.902226 -0.245734 -5.344305 -10.439234 1.911700 34.103059 -48.380935 -66.979328 40.952568 28.089240 -63.463379 23.958495 -4.534123 5.521315 -20.886806 -10.879809 -27.179631 1.500500 0.749166 1.629083 1.690184 2.323780 -25.605414 -1.901972 3.829681 46.445064 7.043894 9.203875 -18.891511 2.633644 -17.706669 -9.659756 0.044133 -0.269869 -24.634092 4.054566 -5.731953 51.440863 -14.125220 -5.109285 -30.115216 -2.980678 10.650459 -1.160113 0.012344 0.106336 
4.181306 -11.499512 3.218261 -6.383745 -0.454326 -7.305013 -0.333000 0.771599 -7.236777 -0.189855 1.340142 -10.557256 -0.184361 1.206277 -10.572097 -2.566365 0.953122 3.834272 3.830741 8.562162 13.009530 -1.275336 10.961891 2.571032 -36.036051 -19.501739 -19.373765 -41.521584 -32.071358 -12.767315 -34.211939 -35.708041 3.371530 -6.527053 10.122707 9.867238 -13.018140 2.485036 5.973634 1.203591 -1.394332 -1.902232 -0.030930 -2.683925 -11.131699 2.032611 45.467610 -50.518774 -42.995945 32.724925 13.554852 -78.189957 26.358042 -3.578855 8.105045 -19.193521 -8.976594 -27.179626 1.500495 0.749163 1.629084 1.690182 2.323776 -20.171478 0.457278 4.300390 48.371847 5.256265 9.017283 -19.373944 2.702052 -17.560249 -10.121707 0.051501 -0.271446 -19.387309 6.216617 -5.678610 53.948294 -14.220380 -5.012655 -30.849284 -3.620727 10.193251 -1.161462 -0.000331 0.102396 
4.172058 -11.615596 1.955264 -13.930035 -0.695315 -7.419736 2.574340 0.787792 -8.013502 5.159661 0.622259 -11.263030 5.163778 0.440211 -11.257648 -1.844644 1.302382 4.047156 1.116599 9.919323 12.988315 -0.807870 8.354712 5.243325 -45.099859 -30.350693 -17.234842 -22.545862 -19.954809 -4.368460 -38.719929 -38.871839 5.576112 -7.191137 10.498966 10.504421 -13.018144 2.485029 5.973637 1.203586 -1.394336 -1.902224 0.286041 0.695298 -12.114209 9.599697 53.075809 -61.082477 -22.271842 19.657631 4.306072 -79.343616 21.249775 3.754829 14.012368 -14.793222 -4.786601 -27.179619 1.500496 0.749159 1.629075 1.690185 2.323776 -13.753186 3.270185 5.486801 49.088003 3.705086 8.960950 -18.361422 2.555170 -16.924690 -11.078715 0.067117 -0.268109 -12.770161 6.815386 -4.902643 54.026206 -14.217962 -5.949459 -30.419166 -3.432134 9.409438 -1.152119 0.001276 0.103101 
4.435026 -11.211020 0.841218 -19.806080 0.107215 -8.084874 4.958047 0.968168 -8.450800 9.531172 0.291769 -11.208822 9.549152 0.077546 -11.174801 -0.821869 1.466957 3.855872 -0.364555 9.964847 12.477355 -0.290035 5.184199 8.168901 -46.095294 -44.683760 -10.843384 -8.137230 -7.666770 -0.902624 -41.184227 -33.484644 16.511562 -6.736648 10.242933 10.068680 -13.018136 2.485032 5.973634 1.203597 -1.394331 -1.902231 0.691822 4.267644 -14.030104 23.038453 53.322522 -76.174258 -7.543140 7.097601 0.916744 -61.632991 14.272684 16.846467 11.407708 -16.830665 -6.606379 -27.179630 1.500501 0.749160 1.629077 1.690187 2.323775 -8.725363 5.299307 6.720940 48.797207 2.607225 9.013484 -16.415362 2.282202 -16.146676 -12.036310 0.088210 -0.254400 -6.759823 5.195093 -4.208745 51.903724 -14.119428 -7.285888 -29.030817 -2.402930 8.742902 -1.139180 0.005968 0.097191 
4.941071 -10.690024 0.188655 -22.568473 1.940936 -8.609090 6.145692 1.007051 -8.524944 11.676103 0.014149 -10.663242 11.696441 -0.219550 -10.611868 0.469669 1.541882 3.469906 -0.305298 9.600900 11.571797 0.071165 2.769491 10.222997 -42.902276 -54.543705 -4.068348 1.788513 1.634460 -0.386447 -44.261514 -27.092012 22.540041 -6.254240 9.965830 9.606182 -13.018141 2.485032 5.973635 1.203590 -1.394332 -1.902226 1.079580 6.762871 -16.423246 28.612106 52.808017 -82.092303 1.476421 -1.281453 0.504704 -46.935066 22.138605 33.873948 1.178821 -23.427737 -14.152912 -27.179633 1.500497 0.749161 1.629081 1.690185 2.323778 -6.565688 5.892959 7.314178 48.420044 2.333483 9.087494 -15.126851 1.985736 -14.746580 -12.144530 0.095143 -0.230233 -3.018674 1.807497 -4.256267 49.105491 -13.220511 -8.311462 -27.566965 -1.417467 8.413897 -1.188969 0.007897 0.088910 
5.619047 -10.437175 0.293944 -21.884085 3.826631 -8.997384 5.828762 0.833652 -8.367967 11.068752 -0.231142 -10.175251 11.077033 -0.466731 -10.133549 1.680454 1.529504 3.454541 1.055987 9.467838 10.971238 0.185382 2.030036 10.716374 -33.804642 -61.385540 3.951825 4.776102 4.455078 -0.540598 -48.011329 -24.365889 26.633428 -6.254452 9.965666 9.606145 -13.018137 2.485029 5.973636 1.203585 -1.394335 -1.902223 1.136736 6.944498 -17.381542 28.889866 53.834410 -81.171075 3.633541 -3.282620 0.597822 -45.670224 30.330326 37.996004 0.092016 -24.007929 -14.985795 -27.179621 1.500499 0.749163 1.629078 1.690185 2.323774 -7.630278 5.242140 7.243564 48.765327 2.930269 9.089996 -15.412295 1.748861 -13.216473 -11.436387 0.091407 -0.209778 -2.439632 -1.252883 -4.883300 47.255535 -11.991635 -8.303123 -26.817052 -1.220382 8.378874 -1.335157 0.006812 0.085034 
6.481629 -10.610320 1.091281 -18.426213 4.775271 -9.667471 4.262334 0.580865 -8.006776 8.203172 -0.233474 -9.926491 8.200394 -0.429137 -9.907031 2.401135 1.418997 3.862602 3.329942 9.508235 11.155511 -0.033509 3.614195 9.334474 -33.355038 -60.343430 0.589978 -1.535767 -1.478963 -0.360086 -47.748753 -29.576594 27.579008 -6.264706 9.971498 9.615856 -13.018131 2.485033 5.973636 1.203592 -1.394331 -1.902230 0.853736 5.275389 -16.109063 25.819992 53.421587 -76.021959 -3.069572 3.000780 0.543957 -44.952023 29.388364 26.197732 1.490227 -23.257207 -13.914889 -27.179619 1.500493 0.749167 1.629085 1.690191 2.323773 -11.209274 3.973421 6.854312 49.856061 4.141209 8.999421 -17.280889 1.622825 -12.398937 -10.257484 0.073186 -0.202892 -4.687705 -1.635531 -5.376173 46.817262 -12.538679 -7.041687 -26.944072 -1.263086 8.462207 -1.577229 0.001302 0.089759 
